# xmcd CD database file
# Copyright (C) 1997 Ti Kan
# 
# Track frame offsets:
#     150
#     17877
#     36137
#     51812
#     68117
#     82882
#     100067
#     120140
#     136745
#     158140
#     175382
# 
# Disc length: 2544 seconds
# 
# Revision: 2
# Processed by: cddbd v1.4b41PL1 Copyright (c) Steve Scherf et al.
# Submitted via: DiscPlay 4.0.4
# 
DISCID=7f09ee0b
DTITLE=Tanya Tucker - Complicated
DYEAR=1900
DGENRE=
TTITLE0=Ridin' Out The Heartache
TTITLE1=Little Things
TTITLE2=It Hurts Like Love
TTITLE3=I Don't Believe That's How You Feel
TTITLE4=By The Way
TTITLE5=Love Thing
TTITLE6=Wishin' It All Away
TTITLE7=Complicated
TTITLE8=All I Have To Offer You Is Love
TTITLE9=What Your Love Does For Me
TTITLE10=You Don't Do It
EXTD=
EXTT0=
EXTT1=
EXTT2=
EXTT3=
EXTT4=
EXTT5=
EXTT6=
EXTT7=
EXTT8=
EXTT9=
EXTT10=
PLAYORDER=
